<svg xmlns="http://www.w3.org/2000/svg" version="1.1" xmlns:xlink="http://www.w3.org/1999/xlink" width="512" height="512" x="0" y="0" viewBox="0 0 512 512" style="enable-background:new 0 0 512 512" xml:space="preserve" class=""><g><linearGradient id="a" x1=".954" x2="419.119" y1="465.082" y2="46.918" gradientUnits="userSpaceOnUse"><stop offset="0" stop-color="#f803fe"></stop><stop offset="1" stop-color="#0ecbde"></stop></linearGradient><path fill="url(#a)" d="M60.101 503.055h299.923c28.162 0 51.075-22.91 51.075-51.072v-189.43l83.541-83.54c11.21-11.208 11.21-29.444 0-40.657l-30.916-30.918c-11.232-11.227-29.426-11.236-40.654.002l-11.971 11.971V60.018c0-28.162-22.913-51.073-51.075-51.073H60.101c-28.201 0-51.148 22.91-51.148 51.073v391.964c0 28.162 22.947 51.073 51.148 51.073zm201.388-112.068-50.395-50.395 188.751-188.755 50.397 50.397-188.753 188.753zm-57.573-36.398 43.581 43.576-61.7 19.606c-.908.307-1.781-.551-1.487-1.489zm249.221-236.563 30.916 30.916c5.366 5.371 5.366 14.11 0 19.481l-23.225 23.225-50.397-50.397 23.224-23.225c5.206-5.201 14.277-5.201 19.482 0zM23.926 60.018c0-19.906 16.226-36.099 36.175-36.099h299.923c19.906 0 36.102 16.194 36.102 36.099v74.365l-1.574 1.574-.001.001C184.553 346.072 195.715 334.577 194.542 336.152c-.372.5-.764.9-1.171 2.173l-23.332 73.425c-3.954 12.434 7.779 24.269 20.291 20.293l73.427-23.332c1.265-.403 1.727-.834 2.227-1.214 1.579-1.199-7.167 7.226 130.142-129.972v174.457c0 19.906-16.196 36.099-36.102 36.099H60.101c-19.949 0-36.175-16.194-36.175-36.099zm47.331 26.653a7.487 7.487 0 0 1 7.487-7.487h262.559a7.488 7.488 0 0 1 0 14.974H78.744a7.488 7.488 0 0 1-7.487-7.487zm0 84.665a7.486 7.486 0 0 1 7.487-7.486h234.319a7.487 7.487 0 0 1 0 14.973H78.744a7.489 7.489 0 0 1-7.487-7.487zm0 84.664a7.487 7.487 0 0 1 7.487-7.487h159.654a7.488 7.488 0 0 1 0 14.974H78.744A7.488 7.488 0 0 1 71.257 256zm0 84.662a7.487 7.487 0 0 1 7.487-7.487h92.665a7.487 7.487 0 0 1 0 14.974H78.744a7.489 7.489 0 0 1-7.487-7.487zm0 84.664a7.487 7.487 0 0 1 7.487-7.487h68.139a7.487 7.487 0 0 1 0 14.974H78.744a7.488 7.488 0 0 1-7.487-7.487z" opacity="1" data-original="url(#a)" class=""></path></g></svg>