<svg xmlns="http://www.w3.org/2000/svg" version="1.1" xmlns:xlink="http://www.w3.org/1999/xlink" width="512" height="512" x="0" y="0" viewBox="0 0 48 48" style="enable-background:new 0 0 512 512" xml:space="preserve" fill-rule="evenodd" class=""><g><linearGradient id="a" x1="0" x2="1" y1="0" y2="0" gradientTransform="matrix(48 48 -48 48 216 144)" gradientUnits="userSpaceOnUse"><stop offset="0" stop-color="#b985de"></stop><stop offset="1" stop-color="#251ee5"></stop></linearGradient><path fill="url(#a)" d="M241 184v-3a1 1 0 0 0-2 0v3a1 1 0 0 0 2 0zm7.866-2.644-1.5-2.598a1 1 0 0 0-1.732 1l1.5 2.598a1 1 0 0 0 1.732-1zm-16 1 1.5-2.598a1 1 0 0 0-1.732-1l-1.5 2.598a1 1 0 0 0 1.732 1zM240 158c-2.202 0-5.07.828-7.999 2.017-6.597 2.679-13.542 7.142-13.542 7.142a1 1 0 0 0 0 1.682s6.945 4.463 13.542 7.142C234.93 177.172 237.798 178 240 178s5.07-.828 7.999-2.017c6.597-2.679 13.542-7.142 13.542-7.142a1 1 0 0 0 0-1.682s-6.945-4.463-13.542-7.142C245.07 158.828 242.202 158 240 158zm8.189 4.263C249.33 163.887 250 165.866 250 168s-.67 4.113-1.811 5.737a62.94 62.94 0 0 0 1.803-.811c3.748-1.752 7.262-3.803 9.112-4.926-1.85-1.123-5.364-3.174-9.112-4.926a62.94 62.94 0 0 0-1.803-.811zm-16.378 0a62.94 62.94 0 0 0-1.803.811c-3.748 1.752-7.262 3.803-9.112 4.926 1.85 1.123 5.364 3.174 9.112 4.926.597.279 1.2.552 1.803.811C230.67 172.113 230 170.134 230 168s.67-4.113 1.811-5.737zM240 164c-2.208 0-4 1.792-4 4s1.792 4 4 4 4-1.792 4-4-1.792-4-4-4zm0 2a2 2 0 1 1-.001 4.001A2 2 0 0 1 240 166zm-8.866-11.356 1.5 2.598a1 1 0 0 0 1.732-1l-1.5-2.598a1 1 0 0 0-1.732 1zm16-1-1.5 2.598a1 1 0 0 0 1.732 1l1.5-2.598a1 1 0 0 0-1.732-1zM239 152v3a1 1 0 0 0 2 0v-3a1 1 0 0 0-2 0z" transform="translate(-216 -144)" opacity="1" data-original="url(#a)" class=""></path></g></svg>